<?xml version="1.0" standalone="no"?><!DOCTYPE svg PUBLIC "-//W3C//DTD SVG 1.1//EN" "http://www.w3.org/Graphics/SVG/1.1/DTD/svg11.dtd"><svg t="1533548341083" class="icon" style="" viewBox="0 0 1024 1024" version="1.1" xmlns="http://www.w3.org/2000/svg" p-id="3029" xmlns:xlink="http://www.w3.org/1999/xlink" width="24" height="24"><defs><style type="text/css"></style></defs><path d="M476.745143 478.183619c-11.150222 0-18.716444 1.080889-22.682413 2.169905v71.655619c4.68927 1.080889 10.451302 1.446603 18.366984 1.446603 29.175873 0 47.193397-14.774857 47.193397-39.610921 0-22.332952-15.498159-35.661206-42.877968-35.661206z" fill="#d4237a" p-id="3030"></path><path d="M831.618032 397.637079h-19.902984V301.592381c0-0.601397-0.097524-1.202794-0.170667-1.812318a15.969524 15.969524 0 0 0-3.860318-10.524444L647.858794 106.682921c-0.048762-0.048762-0.097524-0.065016-0.130032-0.113778a16.075175 16.075175 0 0 0-4.299175-3.348318 16.879746 16.879746 0 0 0-3.210158-1.349079c-0.300698-0.08127-0.568889-0.203175-0.869588-0.284444a16.278349 16.278349 0 0 0-3.730285-0.463239H242.826159c-17.936254 0-32.507937 14.587937-32.507937 32.507937v263.996952H190.415238a46.461968 46.461968 0 0 0-46.461968 46.461969v241.615238a46.470095 46.470095 0 0 0 46.461968 46.461968h19.902984v165.400381c0 17.92 14.571683 32.507937 32.507937 32.507936h536.380952c17.92 0 32.507937-14.587937 32.507937-32.507936V732.176254h19.902984a46.470095 46.470095 0 0 0 46.461968-46.461968v-241.615238a46.461968 46.461968 0 0 0-46.461968-46.461969zM242.826159 133.640127h376.539428v166.31873a16.253968 16.253968 0 0 0 16.253969 16.253968h143.587555v81.432381h-536.380952V133.640127z m331.158349 378.758095c0 23.763302-7.915683 43.934476-22.316698 57.628445-18.740825 17.643683-46.470095 25.559365-78.864254 25.559365-7.208635 0-13.702095-0.34946-18.740826-1.072762v86.788063H399.685079V441.823492c16.936635-2.893206 40.699937-5.046857 74.191238-5.046857 33.848889 0 57.977905 6.477206 74.199366 19.447873 15.473778 12.239238 25.908825 32.410413 25.908825 56.173714zM227.523048 679.497143l6.135873-44.292064c7.566222 2.519365 17.277968 4.331683 28.07873 4.331683 23.064381 0 37.45727-10.459429 37.45727-48.266159V438.572698h54.735238v153.41308c0 69.144381-33.141841 93.26527-86.430476 93.26527-12.596825 0.008127-29.167746-2.137397-39.976635-5.753905z m551.684063 209.269841h-536.380952V732.176254h536.380952v156.59073z m32.491683-218.632127c-16.920381 5.762032-48.965079 13.685841-81.042286 13.685841-44.27581 0-76.344889-11.166476-98.661587-32.768-22.332952-20.886349-34.588444-52.57346-34.214604-88.234666 0.34946-80.668444 59.050667-126.764698 138.64635-126.764699 31.337651 0 55.474794 6.111492 67.356444 11.881651l-11.53219 43.934476c-13.328254-5.762032-29.899175-10.443175-56.547556-10.443174-45.73054 0-80.294603 25.933206-80.294603 78.514793 0 50.054095 31.321397 79.587556 76.344889 79.587556 12.604952 0 22.69054-1.446603 27.005968-3.616508V585.142857h-37.45727v-42.853587h90.396445v127.845587z" fill="#d4237a" p-id="3031"></path></svg>