<?xml version="1.0" standalone="no"?><!DOCTYPE svg PUBLIC "-//W3C//DTD SVG 1.1//EN" "http://www.w3.org/Graphics/SVG/1.1/DTD/svg11.dtd"><svg t="1533548234440" class="icon" style="" viewBox="0 0 1024 1024" version="1.1" xmlns="http://www.w3.org/2000/svg" p-id="1594" xmlns:xlink="http://www.w3.org/1999/xlink" width="24" height="24"><defs><style type="text/css"></style></defs><path d="M716.288 255.2384V157.2032c0-3.648 2.0544-4.4736 4.6656-1.9584l116.8896 116.6016c2.6112 2.6112 1.6896 4.6656-1.9584 4.6656h-98.2272a21.504 21.504 0 0 1-21.3696-21.2736z m30.9696-165.12c-0.7296-0.7296-1.4784-1.2864-2.2272-2.0352L698.3744 41.408A18.24 18.24 0 0 0 687.104 36.8H299.4176c-54.2016 0-98.3232 44.0256-98.3232 98.0352v434.2464h76.9536V134.816c0-11.5776 9.792-21.3696 21.3696-21.3696h339.9168v141.792c0 54.1056 44.1216 98.0352 98.3232 98.0352h142.1568V893.888c0 11.5584-9.792 21.3504-21.3504 21.3504H299.4176c-11.5776 0-21.3696-9.792-21.3696-21.3504v-54.0096H201.0944v54.0096c0 54.1056 44.1216 98.0352 98.304 98.0352H858.368c54.2016 0 98.304-44.0256 98.304-98.0352V305.792a17.7984 17.7984 0 0 0-4.6464-11.1936l-46.8288-46.656-2.1504-2.2272-155.7888-155.5968z" fill="#FF6258" p-id="1595"></path><path d="M562.112 658.688h-40.32v116.5248h-30.1248V658.688h-40.2048v-24.6144h110.6304v24.6144z m-154.2144 116.5248l-25.2864-46.848c-0.9216-1.6704-1.8624-4.7424-2.784-9.216h-0.384a67.968 67.968 0 0 1-3.264 9.504l-25.3632 46.56h-36.0192l45.2544-70.6176-41.3376-70.5216h36.672l21.0816 43.2c1.6704 3.5328 3.168 7.3536 4.3776 11.6544h0.384c1.3056-3.84 2.784-7.8528 4.6464-12.1344l23.232-42.72h33.6l-42.6432 69.9648 43.7568 71.1744h-35.904zM311.36 658.688h-40.32v116.5248h-30.1248V658.688H200.7104v-24.6144h110.6496v24.6144z m355.3152-63.6096H96.0512c-14.0736 0-25.6512 11.4816-25.6512 25.5552v168.48c0 14.0736 11.5776 25.536 25.6512 25.536h570.624c14.0736 0 25.6512-11.4624 25.6512-25.536v-168.384c0-14.0736-11.5776-25.6512-25.6512-25.6512zM305.1008 395.7248H614.336v-37.3056H305.1008v37.3056z m0-68.6592H614.336v-37.3056H305.1008v37.3056z m0-68.6592H614.336V221.12H305.1008v37.3056z m0-68.6592H614.336V152.4416H305.1008v37.3056z" fill="#FF6258" p-id="1596"></path></svg>