<?xml version="1.0" standalone="no"?><!DOCTYPE svg PUBLIC "-//W3C//DTD SVG 1.1//EN" "http://www.w3.org/Graphics/SVG/1.1/DTD/svg11.dtd"><svg class="icon" width="24px" height="24.00px" viewBox="0 0 1024 1024" version="1.1" xmlns="http://www.w3.org/2000/svg"><path fill="#808080" d="M866.375 62H287c-50.625 0-95.625 45-95.625 95.625v95.625H123.875C90.125 253.25 62 281.375 62 320.75v388.125c0 33.75 28.125 61.875 61.875 61.875h61.875v95.625c5.625 50.625 50.625 95.625 101.25 95.625h579.375c50.625 0 95.625-45 95.625-95.625V157.625c0-50.625-45-95.625-95.625-95.625zM242 489.5c0 11.25 0 16.875-5.625 22.5 0 5.625-5.625 5.625-5.625 11.25 0 0-5.625 5.625-11.25 5.625H146.375v28.125H118.25V438.875h90c5.625 0 16.875 0 16.875 5.625 5.625 0 5.625 0 11.25 5.625 0 5.625 5.625 5.625 5.625 11.25v28.125z m658.125 376.875c0 16.875-16.875 33.75-33.75 33.75H287c-16.875 0-33.75-16.875-33.75-33.75v-95.625H512c33.75 0 61.875-28.125 61.875-61.875v-61.875h225c16.875 0 33.75-16.875 33.75-33.75s-16.875-33.75-33.75-33.75h-225V512h225c16.875 0 33.75-16.875 33.75-33.75s-16.875-33.75-33.75-33.75h-225V382.625h225c16.875 0 33.75-16.875 33.75-33.75s-16.875-33.75-33.75-33.75h-225c0-33.75-28.125-61.875-61.875-61.875H253.25V157.625c0-16.875 16.875-33.75 33.75-33.75h579.375c16.875 0 33.75 16.875 33.75 33.75v708.75zM264.5 562.625V438.875h101.25c5.625 0 11.25 0 16.875 5.625 5.625 0 11.25 5.625 11.25 5.625s0 5.625 5.625 11.25v78.75c0 5.625-5.625 11.25-5.625 11.25 0 5.625-5.625 5.625-11.25 5.625s-11.25 5.625-16.875 5.625H264.5z m264.375-73.125v28.125H455.75v39.375h-28.125V438.875h106.875v28.125H455.75v28.125h73.125v-5.625z m-163.125-22.5c0-5.625-5.625-5.625-11.25-5.625H292.625v67.5h61.875c5.625 0 5.625 0 11.25-5.625l5.625-5.625v-28.125-11.25c0-5.625-5.625-5.625-5.625-11.25z m-151.875 0c0-5.625-5.625-5.625-11.25-5.625h-56.25v39.375h50.625c5.625 0 11.25 0 11.25-5.625 0 0 5.625-5.625 0-16.875 5.625 0 5.625-5.625 5.625-11.25z"  /></svg>