<?xml version="1.0" standalone="no"?><!DOCTYPE svg PUBLIC "-//W3C//DTD SVG 1.1//EN" "http://www.w3.org/Graphics/SVG/1.1/DTD/svg11.dtd"><svg t="1533697187522" class="icon" style="" viewBox="0 0 1024 1024" version="1.1" xmlns="http://www.w3.org/2000/svg" p-id="3710" xmlns:xlink="http://www.w3.org/1999/xlink" width="24" height="24"><defs><style type="text/css"></style></defs><path d="M588.288 640.256h164.096v51.2H588.288zM588.288 517.1712h164.096v51.2H588.288zM588.288 394.1376h164.096v51.2H588.288z" fill="#888888" p-id="3711"></path><path d="M424.192 337.92H137.0624a81.92 81.92 0 0 0-81.92 81.92v287.1808a81.92 81.92 0 0 0 81.92 81.92h287.1296a81.92 81.92 0 0 0 81.92-81.92V419.84a81.92 81.92 0 0 0-81.92-81.92z m20.48 389.7344h-81.92l-81.92-109.4144-81.92 109.4144h-81.92l122.88-163.84-122.88-163.84h81.92l81.92 109.4144L362.7008 399.36h81.92l-122.88 163.84z" fill="#888888" p-id="3712"></path><path d="M848.128 978.5856H260.096a107.52 107.52 0 0 1-107.52-107.52h51.2a56.32 56.32 0 0 0 56.32 56.32h588.032a56.32 56.32 0 0 0 56.32-56.32V132.5568a56.32 56.32 0 0 0-56.32-56.32H260.096a56.32 56.32 0 0 0-56.32 56.32v122.88h-51.2v-122.88a107.52 107.52 0 0 1 107.52-107.52h588.032a107.52 107.52 0 0 1 107.52 107.52v738.4064a107.52 107.52 0 0 1-107.52 107.6224z" fill="#888888" p-id="3713"></path></svg>