<?xml version="1.0" standalone="no"?><!DOCTYPE svg PUBLIC "-//W3C//DTD SVG 1.1//EN" "http://www.w3.org/Graphics/SVG/1.1/DTD/svg11.dtd"><svg t="1533548221081" class="icon" style="" viewBox="0 0 1024 1024" version="1.1" xmlns="http://www.w3.org/2000/svg" p-id="1343" xmlns:xlink="http://www.w3.org/1999/xlink" width="24" height="24"><defs><style type="text/css"></style></defs><path d="M852.9259008 390.01288427l-21.2298496 0L831.6960512 287.5652064c0-0.64149013-0.1040256-1.28298027-0.1820448-1.93313813-0.0346752-4.06565973-1.33499307-8.061968-4.11767147-11.2260736L656.91604693 79.6617824c-0.0520128-0.0520128-0.1040256-0.0693504-0.1387008-0.1213632-1.01424747-1.13561067-2.20187093-2.08050773-3.450176-2.89537387-0.37275733-0.2513952-0.74551573-0.45944533-1.13561066-0.67616533-1.08359787-0.58947733-2.23654613-1.08359787-3.4241696-1.4390176-0.32074453-0.086688-0.60681493-0.21672-0.92755947-0.30340693-1.28298027-0.30340693-2.62664107-0.49412053-3.97897173-0.49412054L224.88123627 73.73233387c-19.13200427 0-34.6751328 15.56046613-34.6751328 34.6751328l0 281.5967488L168.97625387 390.00421547c-27.36734827 0-49.55943253 22.18341547-49.55943254 49.55943253l0 257.72292053c0 27.35867947 22.19208427 49.55943253 49.55943254 49.55943254l21.2298496 0 0 176.42707306c0 19.11466667 15.54312853 34.6751328 34.6751328 34.6751328l572.13968213 0c19.11466667 0 34.6751328-15.56046613 34.6751328-34.6751328L831.6960512 746.85467093l21.2298496 0c27.36734827 0 49.55943253-22.20075307 49.55943253-49.55943253l0-257.72292053C902.48533333 412.1963008 880.29324907 390.01288427 852.9259008 390.01288427zM224.88123627 108.41613547l401.6420576 0 0 177.40664533c0 9.5790048 7.76722987 17.33756587 17.33756586 17.33756587l153.16005974 0 0 86.8612064-572.13968214 0L224.88123627 108.41613547zM612.84395307 436.00944747L525.62732693 694.92866027l-68.37069226 0-82.97759147-258.9192128 64.157664 0 31.49368853 109.47806186c8.84215893 30.73083627 16.90412693 60.30872427 23.0502944 92.57393387l1.15294827 0c6.5189248-31.1209312 14.5895616-61.84309867 23.42305173-91.42098667l33.04540054-110.63967786L612.84395307 436.00077867zM178.73730347 683.01775253l11.90223893-48.40648426c15.75117867 8.061968 39.95442133 16.1326048 64.92051627 16.1326048 26.89056533 0 41.1073696-11.13071787 41.1073696-28.0348448 0-16.1326048-12.30100267-25.35619093-43.42193387-36.49557654-43.02317013-14.9796576-71.05801493-38.79280427-71.05801493-76.43266026 0-44.1847872 36.87700267-77.98437227 97.94858026-77.98437227 29.19646187 0 50.7123808 6.13749867 66.07346454 13.0551872l-13.0465184 47.253536c-10.37653333-5.001888-28.80636587-12.29233387-54.1712256-12.29233387-25.34752213 0-37.6485248 11.5294816-37.6485248 24.96609494 0 16.5227008 14.5895616 23.83048427 48.02505813 36.49557653 45.701824 16.90412693 67.217744 40.7172736 67.217744 77.2041824 0 43.41326613-33.40949013 80.2902688-104.49351147 80.2902688C222.52332693 698.7689312 193.31819733 691.08838933 178.73730347 683.01775253zM797.0209184 913.88478293l-572.13968213 0L224.88123627 746.85467093l572.13968213 0L797.0209184 913.88478293zM853.70609067 683.01775253c-18.0484064 6.13749867-52.2294176 14.6068992-86.41909867 14.6068992-47.253536 0-81.44321707-11.91957653-105.26503253-34.95253333-23.82181547-22.27877227-36.86833387-56.09569493-36.49557654-94.11697813 0.39876373-86.05500907 63.01338453-135.22434667 147.90677654-135.22434667 33.40949013 0 59.155776 6.5362624 71.829536 12.67376107l-12.30100267 46.88077866c-14.21680427-6.14616747-31.86644693-11.15672427-60.30005547-11.15672426-48.79658027 0-85.66491413 27.6620864-85.66491413 83.7491136 0 53.39970347 33.40949013 84.89339307 81.44321707 84.89339306 13.44528213 0 24.19457387-1.5430432 28.79769706-3.84027093L797.2376384 592.3596192l-39.92841493 0 0-45.7104928 96.3968672 0L853.70609067 683.01775253z" fill="#1296db" p-id="1344"></path></svg>