<?xml version="1.0" standalone="no"?><!DOCTYPE svg PUBLIC "-//W3C//DTD SVG 1.1//EN" "http://www.w3.org/Graphics/SVG/1.1/DTD/svg11.dtd"><svg class="icon" width="24px" height="24.00px" viewBox="0 0 1024 1024" version="1.1" xmlns="http://www.w3.org/2000/svg"><path fill="#808080" d="M556.01425813 306.902315v503.29196063H50.80981625v-503.29196063h505.20444187z m-78.46048407 174.14267438c-36.35870719-11.4823875-57.40912687-5.74119375-68.89151531 30.61845187-9.56803125 34.44528844-24.87725719 66.97809563-42.09990094 107.16457781-13.39580625-42.10083844-24.87725719-76.54612781-32.53186969-112.9057725-5.74119375-21.05041969-15.30922594-28.70503219-38.27306343-30.61845093-24.87819469 0-30.61845094 11.4823875-36.35964563 32.53186968-9.56803125 34.44622594-21.05041969 70.80587062-32.53186968 112.9057725-13.39674375-40.18648219-28.70596969-72.71835281-36.35964469-103.33680281-9.56803125-40.18741969-30.61845094-47.84203313-70.80493406-34.44622594 22.96383844 55.49570813 47.84015813 110.99235375 70.80493406 168.40147969 7.6546125 21.05041969 24.87725719 24.87819469 40.18648219 21.05041969 11.4823875-3.8268375 24.87725719-13.39580625 28.70503218-24.87725719 13.39580625-32.53186969 22.96383844-65.06467688 38.27306438-107.16457875 13.39580625 44.01332062 22.96383844 78.45954656 34.44528844 112.9057725 3.827775 7.6546125 13.39674375 19.13606344 21.05041968 19.13606344 13.39580625 0 36.35964469-3.8268375 42.10083844-13.39580625 30.61845094-59.32254563 55.49570813-118.64602875 82.28638406-177.96951281z"  /><path fill="#808080" d="M915.78105687 306.902315H699.53848063V96.39999594c-9.56896875-3.8268375-15.30922594-5.74025625-21.05041876-5.74025625H293.8430675c-24.87725719 0-32.53093219 9.56803125-32.53093219 32.53093219 1.91248125 38.27400094 0 76.54706531 0 116.7335475H205.81548969c0-47.84109563-1.91341875-97.59654656 0-145.43764219 1.91341875-36.35964469 30.61845094-59.32348313 68.89151531-61.23690188 137.78302969 0 275.56605938-3.8268375 413.34908812 1.91341875 36.35964469 1.91435625 78.45954656 24.87819469 109.0779975 49.75545188 42.10083844 32.53186969 78.46048406 74.63270906 116.73354751 114.81919125 40.18648219 42.10083844 53.58228938 95.68312781 53.58228937 151.17883593 1.91341875 185.62412438 0 373.16260594 0 558.78673032 0 57.41006438-24.87725719 82.28732156-82.28732156 82.28732156h-597.05979469c-66.97809563 0-88.02851531-28.70503219-84.20074031-112.9057725h51.66793312c0 7.6546125 3.827775 15.30922594 1.91435625 24.87725719-1.91435625 26.79161344 11.48145 32.53280719 36.35870719 32.53280719h581.75056969c17.22358219 0 36.36058219 1.91341875 36.36058219-24.87819469 3.8268375-199.01993156 3.8268375-399.95328187 3.8268375-604.71440719z m-38.27306343-57.40912687l-122.47380469-122.47380375v122.47380375h122.47380469z"  /><path fill="#808080" d="M624.9057725 479.13157063v-61.23690188h214.32915656v61.23690188h-214.32915656z m216.24257531 68.89151531v57.40912687H621.0779975V548.02308594h220.07035031zM619.16457875 733.64627281v-57.40912687h220.07035031v57.40912687H619.16457875z"  /></svg>