<?xml version="1.0" standalone="no"?><!DOCTYPE svg PUBLIC "-//W3C//DTD SVG 1.1//EN" "http://www.w3.org/Graphics/SVG/1.1/DTD/svg11.dtd"><svg class="icon" width="24px" height="24.00px" viewBox="0 0 1024 1024" version="1.1" xmlns="http://www.w3.org/2000/svg"><path d="M574.437 833.094h328.969c14.25-1.688 25.594-12.844 27.469-27 0.094-1.031 0.094-2.063 0-3.188v-580.313c-0.188-15.75-12.188-28.875-27.844-30.563h-328.594v641.063z" fill="#E9573F" /><path d="M858.5 754.25h-284.063v-30.844h284.063c4.594 0 8.344 3.75 8.344 8.344v14.063c0 4.688-3.75 8.438-8.344 8.438zM858.5 667.063h-284.063v-30.844h284.063c4.594 0 8.344 3.75 8.344 8.344v14.719c-0.281 4.406-3.938 7.781-8.344 7.781zM815.094 443.937c4.594-0.094 8.438 3.563 8.625 8.156v0.656c-4.875 76.969-71.25 135.375-148.219 130.5s-135.375-71.25-130.5-148.219c4.5-70.125 60.375-126 130.5-130.5 4.594-0.188 8.531 3.281 8.813 7.969v123.094c0 4.594 3.75 8.344 8.344 8.344h122.437z" fill="#FFFFFF" /><path d="M848.656 410.469h-122.437c-4.594 0-8.344-3.75-8.344-8.344v-122.531c-0.094-4.594 3.563-8.438 8.156-8.625h0.656c70.219 4.406 126.188 60.375 130.594 130.594 0.188 4.594-3.281 8.531-7.969 8.813-0.281 0.094-0.469 0.094-0.656 0.094z" fill="#FFFFFF" /><path d="M545.938 93.219c-2.531-0.375-5.156-0.375-7.781 0l-420.375 78c-3.094 0.563-6 1.688-8.813 3.188-10.313 5.25-16.781 15.844-16.781 27.469v617.438c-0.094 0.938-0.094 1.781 0 2.719 0.844 11.438 8.063 21.469 18.656 25.969 2.156 1.031 4.406 1.781 6.75 2.062l226.219 43.594 193.969 38.156c16.969 3.094 33.188-8.156 36.281-25.219 0.188-0.938 0.281-1.969 0.375-2.906 0.094-1.031 0.094-2.063 0-3.187v-775.594c0.281-16.406-12.188-30.281-28.5-31.688zM423.312 509c-14.344 34.5-47.906 57.094-85.313 57.469h-28.969c-9.469 0-8.344 1.219-8.625 7.969v94.313c0 4.219 0 5.906-5.438 5.25-13.406-1.031-26.625-1.875-40.031-2.344-6.094 0-8.344-2.062-8.344-8.625v-291.375c0-5.625 1.219-7.594 7.313-7.781 28.125-1.688 56.156-3.563 83.813-5.906 44.344-6.188 85.406 24.75 91.594 69.094 0.188 1.313 0.375 2.719 0.469 4.031 5.063 26.156 2.813 53.063-6.469 77.906zM341.094 415.062c-11.625-1.125-23.344-1.125-34.969 0-3.937 0-5.438 1.031-5.438 5.25v87.844c0 4.219 1.219 5.438 5.438 5.438h22.688c18.75 0 34.875-13.219 38.344-31.688 1.969-7.875 2.813-16.031 2.344-24.094 1.313-19.031-10.313-36.656-28.406-42.75z" fill="#E9573F" /></svg>