<?xml version="1.0" standalone="no"?><!DOCTYPE svg PUBLIC "-//W3C//DTD SVG 1.1//EN" "http://www.w3.org/Graphics/SVG/1.1/DTD/svg11.dtd"><svg t="1533548227254" class="icon" style="" viewBox="0 0 1024 1024" version="1.1" xmlns="http://www.w3.org/2000/svg" p-id="1467" xmlns:xlink="http://www.w3.org/1999/xlink" width="24" height="24"><defs><style type="text/css"></style></defs><path d="M719.5328 251.5712h-0.0192a21.6384 21.6384 0 0 0 21.4656 21.3696h98.7456c3.648 0 4.5888-2.0736 1.9584-4.6848l-117.4656-117.1968c-2.6304-2.5344-4.6848-1.6704-4.6848 1.9776v98.5344z m31.1232-165.9456l156.5568 156.384 2.1696 2.2464 47.0592 46.8672a17.856 17.856 0 0 1 4.6848 11.2512v590.976c0 54.2784-44.352 98.5344-98.8032 98.5344H300.5696c-54.4704 0-98.8224-44.16-98.8224-98.5344v-54.2784h77.3568v54.2784c0.1728 11.7888 9.6768 21.312 21.4656 21.4656H862.4c11.6352 0 21.4848-9.8304 21.4848-21.4656V350.0672h-142.8864c-54.4512 0-98.8032-44.1408-98.8032-98.5152V109.0496H300.5696c-11.6352 0-21.4656 9.8304-21.4656 21.4656v436.4352H201.7472V130.5344C201.7472 76.256 246.0992 32 300.5696 32h389.6256c4.224 0.2112 8.2176 1.8624 11.3472 4.6848l46.8672 46.8864c0.7488 0.7488 1.4976 1.2864 2.2464 2.0544z" fill="#6daf37" p-id="1468"></path><path d="M230.0672 655.712h-13.4016v45.7536h13.1136c17.7216 0 26.6304-7.68 26.6304-23.1552 0-15.0912-8.832-22.5984-26.3424-22.5984" fill="#6daf37" p-id="1469"></path><path d="M335.9936 441.9776h252V212.8448H335.9936v229.1328zM587.9936 189.9776H335.9936a22.848 22.848 0 0 0-22.8672 22.8288v229.1712c0 12.6528 10.2144 22.848 22.8672 22.848h252a22.848 22.848 0 0 0 22.8864-22.8096V212.8448a22.848 22.848 0 0 0-22.8288-22.8672h-0.0576z m-4.032 574.5792c-13.8624 7.968-30.8352 12-51.072 12-22.5984 0-40.416-6.3744-53.4528-19.008-13.0368-12.672-19.584-30.1056-19.584-52.1472 0-22.3104 7.2192-40.512 21.5616-54.5664 14.3424-13.9584 33.2736-20.9856 56.8128-20.9856 15.0912 0 28.3008 2.1504 39.648 6.3744v28.6848c-10.9632-6.3744-24.384-9.6576-40.32-9.6576-13.6704 0-24.7488 4.4928-33.1776 13.4016-8.448 8.9088-12.7488 20.6208-12.7488 35.2512 0 14.8224 3.84 26.4384 11.52 34.6944 7.68 8.3328 18.1056 12.48 31.3152 12.48 7.872 0 14.3424-1.2288 19.3152-3.6672v-29.1648h-28.6848v-24.2688h58.8672v70.5792z m-179.136 9.5616l-60.096-91.776a114.3744 114.3744 0 0 1-6.7584-11.52h-0.4608c0.5568 4.8576 0.8256 12.3648 0.8256 22.5792v80.64h-28.6848v-141.7536h33.024l57.8304 89.1456c3.84 5.9136 6.1824 9.6576 7.0272 11.2512h0.4608c-0.6528-3.3792-0.9216-9.9264-0.9216-19.584v-80.832h28.6848v141.8496h-30.9696 0.0384z m-132.672-62.0544c-10.6752 8.7168-24 12.9408-39.936 12.5568h-15.552v49.4016H186.464v-141.7344h48.8448c35.2512 0 52.8768 14.976 52.8768 44.9088 0 14.5152-5.3376 26.1504-16.032 34.8672z m397.4976-118.9632H96.1856c-14.1504 0-25.7856 11.52-25.7856 25.6896v169.3056c0 14.1504 11.6352 25.6896 25.7856 25.6896h573.4656c14.1696 0 25.7856-11.52 25.7856-25.6896v-169.2288c0-14.1504-11.616-25.7664-25.7856-25.7664z" fill="#6daf37" p-id="1470"></path><path d="M507.8528 280.6208l-67.8912 102.8544-35.136-52.512-57.3888 88.032h229.1328l-68.736-138.3744h0.0192z m-114.5856 12.384a22.848 22.848 0 0 0 22.8864-22.8096v-0.0768a22.848 22.848 0 0 0-22.8288-22.8672h-0.0384a22.848 22.848 0 0 0-22.8864 22.8096v0.0576a22.7904 22.7904 0 0 0 22.6944 22.8864h0.192-0.0192z" fill="#6daf37" p-id="1471"></path></svg>